<svg width="60" height="100" viewBox="0 0 60 100" fill="none" xmlns="http://www.w3.org/2000/svg">
<path d="M58.1215 27.2372C61.8468 30.3416 49.7396 34.9983 51.9127 38.1027C54.0858 41.2072 59.6737 69.147 51.9127 73.8037C44.1516 75.9768 28.6294 76.9081 28.319 78.1499C28.0706 79.1433 18.6953 92.6372 14.0386 99.26H1C2.86266 99.053 7.02259 96.3682 8.76108 92.8912C11.635 87.1433 10.9342 78.3004 24.2832 71.7811C34.9625 66.5656 39.1845 50.671 40.1158 45.7039L30.1816 43.3803L32.3547 23.5119L10.6237 12.0255C10.6237 6.89846 14.9699 1.62096 19.937 1C19.937 1 34.4244 18.1309 40.7367 23.5119L49.4291 26.4564C52.5838 24.0188 55.7634 25.2721 58.1215 27.2372Z" fill="black"/>
<path d="M49.4291 26.4564C47.6 27.8696 45.0829 30.8026 44.1516 34.6878L41.3576 39.1845L35.7696 38.5636L37.6323 26.4564L47.8816 28.6295M49.4291 26.4564C52.5838 24.0188 55.7634 25.2721 58.1215 27.2372C61.8468 30.3416 49.7396 34.9983 51.9127 38.1027C54.0858 41.2072 59.6737 69.147 51.9127 73.8037C44.1516 75.9768 28.6294 76.9081 28.319 78.1499C28.0706 79.1433 18.6953 92.6372 14.0386 99.26H1C2.86266 99.053 7.02259 96.3682 8.76108 92.8912C11.635 87.1433 10.9342 78.3004 24.2832 71.7811C34.9625 66.5656 39.1845 50.671 40.1158 45.7039L30.1816 43.3803L32.3547 23.5119L10.6237 12.0255C10.6237 6.89846 14.9699 1.62096 19.937 1C19.937 1 34.4244 18.1309 40.7367 23.5119L49.4291 26.4564Z" stroke="white"/>
</svg>
