<?xml version="1.0" encoding="utf-8"?>
<!-- Generator: Adobe Illustrator 22.1.0, SVG Export Plug-In . SVG Version: 6.00 Build 0)  -->
<svg version="1.1" id="Layer_1" xmlns="http://www.w3.org/2000/svg" xmlns:xlink="http://www.w3.org/1999/xlink" x="0px" y="0px"
	 viewBox="0 0 40 40" style="enable-background:new 0 0 40 40;" xml:space="preserve">
<style type="text/css">
	.st0{fill:#006577;}
	.st1{fill:#252724;}
	.st2{fill:#1D1D1B;}
</style>
<g>
	<path class="st0" d="M37.1,25.2c0.1-0.5-12.4,12.2-21.6,3.1c0,0,19.6-12.2,15.7-19.4C29.1,5,22.2,5.8,18,8c-5.4,2.9-7.8,8-7.7,7.5
		c0.4-3.5-0.2-6.7-0.5-7.2S5.5,4.9,4.5,5.4c0,0,2.4,1.6,2.9,3.5c0.7,2.6,0.4,7.9,0.1,11c-0.3,3.5-3.2,14.3-3.2,14.3s4.8-10,6.2-13.2
		c1.3-3.1,4.8-7.8,7.7-9.8c3.2-2.2,8.7-3.8,10.2-1.5c2.5,3.7-10.6,14.6-16.9,17.8c-0.4,0.3,6.3,11.3,19.9,4.2
		C34,30.4,36.7,27.1,37.1,25.2"/>
	<path class="st0" d="M37.1,25.2C37.1,25.3,37.2,25.2,37.1,25.2L37.1,25.2v0.2L37,25.5l-0.3,0.2L36,26.2c-0.4,0.3-0.8,0.6-1.2,1
		c-0.8,0.6-1.6,1.2-2.5,1.7c-1.7,1.1-3.6,2-5.6,2.6s-4.1,0.7-6.2,0.3c-2.1-0.5-3.9-1.6-5.4-3.1c-0.2-0.2-0.2-0.6,0-0.8l0.1-0.1l0,0
		c4.5-3,8.9-6.3,12.4-10.3c0.9-1,1.7-2.1,2.3-3.2c0.6-1.1,1.1-2.3,1.1-3.5c0-0.6-0.2-1.1-0.4-1.7c-0.3-0.5-0.7-1-1.2-1.3
		c-1-0.7-2.2-1-3.5-1.1c-2.6-0.2-5.3,0.5-7.7,1.6c-2.4,1.2-4.4,3-6.1,5.1c-0.4,0.5-0.8,1.1-1.2,1.6l-0.3,0.4
		c-0.1,0.1-0.1,0.1-0.2,0.2c0,0,0,0-0.1,0.1c0.1,0-0.3,0.1-0.4-0.1c-0.1-0.1,0-0.1-0.1-0.1c0-0.2,0-0.1,0-0.2v-0.1
		c0-0.3,0.1-0.7,0.1-1c0.1-1.3,0-2.7-0.1-4c0-0.3-0.1-0.7-0.2-1C9.5,8.9,9.5,8.5,9.3,8.3c-0.4-0.4-1-0.8-1.5-1.2
		c-0.6-0.4-1.1-0.7-1.7-1C6,6,5.7,5.8,5.4,5.7C5.1,5.6,4.7,5.5,4.6,5.6V5.2C5.7,6,6.6,6.8,7.3,8c0.3,0.6,0.4,1.3,0.5,1.9
		c0.1,0.7,0.1,1.3,0.2,1.9c0.1,2.5,0.1,5.1-0.1,7.6c-0.2,2.6-0.8,5.1-1.3,7.5c-0.5,2.5-1.1,4.9-1.7,7.4l-1.1-0.4l5-10.8l1.3-2.7
		c0.4-1,0.9-1.8,1.5-2.7c1.1-1.7,2.3-3.3,3.7-4.8c0.7-0.7,1.5-1.5,2.3-2.1c0.9-0.6,1.8-1.2,2.7-1.6c0.9-0.4,1.9-0.8,2.9-1.1
		s2.1-0.4,3.2-0.3c0.6,0,1.2,0.2,1.7,0.5c0.6,0.3,1,0.9,1.3,1.6c0.2,0.7,0.1,1.3,0,1.9c-0.1,0.6-0.4,1.1-0.6,1.5
		c-1,1.9-2.4,3.4-3.8,4.8c-2.9,2.9-6,5.4-9.4,7.6c-0.8,0.6-1.7,1.1-2.6,1.6l-0.7,0.5L12,28l0,0l0,0c0,0,0,0,0.1-0.1
		c0.2-0.2,0.1-0.2,0.2-0.3c0-0.1,0-0.1,0-0.1l0,0c0.1,0.3,0.4,0.8,0.7,1.1c1.1,1.5,2.6,2.8,4.3,3.6c1.7,0.9,3.6,1.3,5.5,1.4
		c1.9,0,3.9-0.4,5.7-1c0.9-0.3,1.8-0.7,2.7-1.1s1.7-1,2.4-1.6s1.4-1.4,2-2.1C36.2,27,36.8,26.1,37.1,25.2L37.1,25.2
		C37.1,25.1,37.1,25.1,37.1,25.2C37.2,25.1,37.3,25.2,37.1,25.2L37.1,25.2c-1.2,3.8-4.6,6.8-8.4,8.1c-1.9,0.7-3.9,1.2-6,1.2
		s-4.1-0.4-6-1.3s-3.5-2.2-4.8-3.9c-0.3-0.4-0.6-0.8-0.9-1.4c0-0.1-0.1-0.2-0.1-0.3c0-0.1,0-0.1,0-0.2s0-0.2,0.2-0.4
		c0.1-0.1,0.2-0.1,0.2-0.1l0,0l0,0l0.3-0.2l0.6-0.4c0.8-0.5,1.7-1,2.5-1.6c3.2-2.3,6.3-4.8,9-7.6c1.4-1.4,2.7-2.9,3.6-4.5
		c0.4-0.8,0.7-1.7,0.5-2.3c-0.1-0.3-0.3-0.5-0.6-0.7c-0.3-0.2-0.7-0.3-1.1-0.3c-1.7-0.2-3.6,0.5-5.3,1.2c-0.9,0.4-1.7,0.9-2.5,1.4
		s-1.5,1.2-2.1,1.9c-1.3,1.4-2.6,2.9-3.6,4.6c-0.5,0.8-1,1.7-1.4,2.5L10,23.7L4.8,34.5c-0.1,0.3-0.5,0.4-0.8,0.3s-0.4-0.4-0.3-0.7
		c0.7-2.4,1.3-4.9,1.9-7.3s1.2-4.9,1.5-7.4c0.2-2.5,0.4-5,0.3-7.5c0-0.6-0.1-1.2-0.2-1.9C7.1,9.4,7,8.8,6.7,8.3
		C6.1,7.2,5.2,6.4,4.2,5.6l0,0c-0.1-0.1-0.1-0.2,0-0.3l0.1-0.1c0.5-0.2,0.8,0,1.2,0.1c0.3,0.1,0.7,0.3,1,0.4C7.1,6,7.7,6.4,8.3,6.8
		C8.9,7.2,9.4,7.5,10,8.1c0.3,0.4,0.3,0.7,0.4,1.1c0.1,0.3,0.1,0.7,0.2,1c0.2,1.4,0.3,2.8,0.2,4.1c0,0.3,0,0.7-0.1,1v0.1
		c0,0,0,0.1,0,0c0,0,0,0-0.1-0.1c-0.1-0.2-0.4-0.1-0.4-0.1l0,0l0.1-0.2l0.3-0.4c0.4-0.6,0.8-1.2,1.2-1.7c1.7-2.2,3.7-4.2,6.2-5.5
		s5.3-2,8.1-2c1.4,0.1,2.9,0.3,4.2,1.3c0.7,0.4,1.1,1.1,1.6,1.7c0.3,0.7,0.6,1.5,0.6,2.2c0.1,1.6-0.5,3-1.2,4.2
		c-0.7,1.3-1.6,2.4-2.5,3.4c-1.9,2.1-3.9,3.9-6.1,5.6s-4.4,3.3-6.7,4.8l0.1-0.9c1.3,1.4,3,2.5,4.9,3s3.9,0.4,5.8-0.1
		c1.9-0.5,3.8-1.3,5.5-2.3c0.9-0.5,1.7-1,2.5-1.6c0.4-0.3,0.8-0.6,1.2-0.9l0.6-0.5l0.3-0.2l0.2-0.1V25.2L37.1,25.2
		C37.1,25.1,37.2,25.1,37.1,25.2C37.2,25.2,37.2,25.3,37.1,25.2C37.1,25.3,37.1,25.2,37.1,25.2z"/>
</g>
</svg>
