<?xml version="1.0" encoding="utf-8"?>
<!-- Generator: Adobe Illustrator 22.1.0, SVG Export Plug-In . SVG Version: 6.00 Build 0)  -->
<svg version="1.1" id="Layer_1" xmlns="http://www.w3.org/2000/svg" xmlns:xlink="http://www.w3.org/1999/xlink" x="0px" y="0px"
	 viewBox="0 0 40 40" style="enable-background:new 0 0 40 40;" xml:space="preserve">
<style type="text/css">
	.st0{fill:#006577;}
	.st1{fill:#252724;}
	.st2{fill:#1D1D1B;}
</style>
<path class="st0" d="M37.1,25.7c0.1-0.5-12.4,12.2-21.6,3.1c0,0,19.6-12.2,15.7-19.4c-2.1-3.9-9-3.1-13.2-0.9
	c-5.4,2.9-7.8,8-7.7,7.5c0.4-3.5-0.2-6.7-0.5-7.2S5.5,5.3,4.5,5.8c0,0,2.4,1.6,2.9,3.5c0.7,2.6,0.4,7.9,0.1,11
	c-0.3,3.5-3.2,14.3-3.2,14.3s4.8-10,6.2-13.2c1.3-3.1,4.8-7.8,7.7-9.8c3.2-2.2,8.7-3.8,10.2-1.5c2.5,3.7-10.6,14.6-16.9,17.8
	c-0.4,0.3,6.3,11.3,19.9,4.2C34,30.8,36.7,27.6,37.1,25.7"/>
</svg>
